<svg width="22" height="22" viewBox="0 0 22 22" fill="none" xmlns="http://www.w3.org/2000/svg">
<path d="M10.9999 15.5833C11.2596 15.5833 11.4775 15.4953 11.6535 15.3193C11.8295 15.1433 11.9172 14.9257 11.9166 14.6666V10.9999C11.9166 10.7402 11.8286 10.5226 11.6526 10.3473C11.4766 10.1719 11.259 10.0839 10.9999 10.0833C10.7408 10.0826 10.5233 10.1706 10.3473 10.3473C10.1713 10.5239 10.0833 10.7414 10.0833 10.9999V14.6666C10.0833 14.9263 10.1713 15.1442 10.3473 15.3202C10.5233 15.4962 10.7408 15.5839 10.9999 15.5833ZM10.9999 8.24992C11.2596 8.24992 11.4775 8.16192 11.6535 7.98592C11.8295 7.80992 11.9172 7.59236 11.9166 7.33325C11.916 7.07414 11.828 6.85659 11.6526 6.68059C11.4772 6.50459 11.2596 6.41658 10.9999 6.41658C10.7402 6.41658 10.5226 6.50459 10.3473 6.68059C10.1719 6.85659 10.0839 7.07414 10.0833 7.33325C10.0826 7.59236 10.1706 7.81022 10.3473 7.98684C10.5239 8.16345 10.7414 8.25114 10.9999 8.24992ZM10.9999 20.1666C9.73186 20.1666 8.5402 19.9258 7.42492 19.4443C6.30964 18.9627 5.3395 18.3097 4.5145 17.4853C3.6895 16.6609 3.03653 15.6908 2.55559 14.5749C2.07464 13.459 1.83386 12.2674 1.83325 10.9999C1.83264 9.73247 2.07342 8.54081 2.55559 7.42492C3.03775 6.30903 3.69073 5.33889 4.5145 4.5145C5.33828 3.69011 6.30842 3.03714 7.42492 2.55559C8.54142 2.07403 9.73309 1.83325 10.9999 1.83325C12.2668 1.83325 13.4584 2.07403 14.5749 2.55559C15.6914 3.03714 16.6616 3.69011 17.4853 4.5145C18.3091 5.33889 18.9624 6.30903 19.4452 7.42492C19.9279 8.54081 20.1684 9.73247 20.1666 10.9999C20.1648 12.2674 19.924 13.459 19.4443 14.5749C18.9645 15.6908 18.3116 16.6609 17.4853 17.4853C16.6591 18.3097 15.689 18.963 14.5749 19.4452C13.4609 19.9273 12.2692 20.1678 10.9999 20.1666Z" fill="url(#paint0_linear_1_1055)"/>
<defs>
<linearGradient id="paint0_linear_1_1055" x1="10.9999" y1="1.83325" x2="10.9999" y2="20.1666" gradientUnits="userSpaceOnUse">
<stop stop-color="#2C1D88"/>
<stop offset="1" stop-color="#741278"/>
</linearGradient>
</defs>
</svg>
