<svg width="21" height="24" viewBox="0 0 21 24" fill="none" xmlns="http://www.w3.org/2000/svg">
<path d="M14.7869 0C13.3671 0.16629 12.0613 0.869011 11.1301 1.96796C10.6758 2.47674 10.334 3.07804 10.1276 3.73158C9.92112 4.38513 9.85483 5.07583 9.93315 5.75744C10.647 5.74304 11.3486 5.56734 11.9869 5.24315C12.6253 4.91896 13.1841 4.45446 13.6228 3.88353C14.064 3.34851 14.3945 2.72894 14.5945 2.06174C14.7945 1.39454 14.8599 0.69337 14.7869 0Z" fill="white"/>
<path d="M19.859 8.02785C19.3142 7.30735 18.6202 6.71661 17.8259 6.29721C17.0315 5.87782 16.1562 5.63994 15.2614 5.60034C13.1035 5.60034 12.1896 6.62778 10.6907 6.62778C9.14488 6.62778 7.97022 5.60392 6.10368 5.60392C5.08725 5.65562 4.09855 5.95756 3.22316 6.48364C2.34776 7.00971 1.61204 7.74405 1.07965 8.62312C-0.661203 11.3054 -0.362838 16.3497 2.45753 20.6476C3.46656 22.1845 4.81508 23.9132 6.57707 23.9287C8.14642 23.9441 8.58809 22.9286 10.7131 22.9179C12.838 22.9072 13.2421 23.9418 14.8068 23.9251C16.5688 23.912 17.9924 21.9964 19.0015 20.4594C19.6105 19.5453 20.1309 18.5737 20.5556 17.5581C19.6192 17.2135 18.8011 16.6019 18.1996 15.797C17.5982 14.9922 17.239 14.0283 17.1654 13.0214C17.0918 12.0145 17.3069 11.0075 17.7848 10.1215C18.2627 9.23563 18.983 8.50857 19.859 8.02785Z" fill="white"/>
</svg>
