<svg width="116" height="38" viewBox="0 0 116 38" fill="none" xmlns="http://www.w3.org/2000/svg">
<rect opacity="0.66" y="17.7908" width="2.37209" height="2.37209" rx="1.18605" fill="white"/>
<rect opacity="0.66" x="7.11627" y="14.2327" width="2.37209" height="9.48837" rx="1.18605" fill="white"/>
<rect opacity="0.66" x="14.2325" y="10.6743" width="2.37209" height="16.6047" rx="1.18605" fill="white"/>
<rect opacity="0.66" x="21.3488" y="16.6047" width="2.37209" height="4.74419" rx="1.18605" fill="white"/>
<rect opacity="0.66" x="28.4651" y="9.48828" width="2.37209" height="18.9767" rx="1.18605" fill="white"/>
<rect opacity="0.66" x="35.5814" y="10.6743" width="2.37209" height="16.6047" rx="1.18605" fill="white"/>
<rect opacity="0.66" x="42.6977" y="13.0466" width="2.37209" height="11.8605" rx="1.18605" fill="white"/>
<rect opacity="0.66" x="49.814" y="13.0466" width="2.37209" height="11.8605" rx="1.18605" fill="white"/>
<rect opacity="0.66" x="56.9302" y="13.0466" width="2.37209" height="11.8605" rx="1.18605" fill="white"/>
<rect opacity="0.66" x="64.0465" y="10.6743" width="2.37209" height="16.6047" rx="1.18605" fill="white"/>
<rect opacity="0.66" x="71.1628" y="13.0466" width="2.37209" height="11.8605" rx="1.18605" fill="white"/>
<rect opacity="0.66" x="78.2791" y="9.48828" width="2.37209" height="18.9767" rx="1.18605" fill="white"/>
<rect opacity="0.66" x="85.3954" y="13.0466" width="2.37209" height="11.8605" rx="1.18605" fill="white"/>
<rect opacity="0.66" x="92.5116" y="16.6047" width="2.37209" height="4.74419" rx="1.18605" fill="white"/>
<rect opacity="0.66" x="99.6279" y="17.7908" width="2.37209" height="2.37209" rx="1.18605" fill="white"/>
</svg>
