<svg width="22" height="22" viewBox="0 0 22 22" fill="none" xmlns="http://www.w3.org/2000/svg">
<path d="M16.4999 2.75C17.4724 2.75 18.405 3.13631 19.0926 3.82394C19.7803 4.51157 20.1666 5.44421 20.1666 6.41667V13.75C20.1666 14.7225 19.7803 15.6551 19.0926 16.3427C18.405 17.0304 17.4724 17.4167 16.4999 17.4167H12.1696L7.80442 20.0356C7.67296 20.1145 7.52381 20.1591 7.37063 20.1655C7.21744 20.1718 7.06512 20.1396 6.92759 20.0719C6.79006 20.0041 6.67172 19.9029 6.58341 19.7776C6.4951 19.6523 6.43963 19.5068 6.42209 19.3545L6.41658 19.25L6.41658 17.4167H5.49992C4.5592 17.4167 3.65446 17.0551 2.97284 16.4068C2.29122 15.7584 1.88487 14.8729 1.83784 13.9333L1.83325 13.75L1.83325 6.41667C1.83325 5.44421 2.21956 4.51157 2.90719 3.82394C3.59483 3.13631 4.52746 2.75 5.49992 2.75L16.4999 2.75ZM12.8333 11H7.33325C7.09014 11 6.85698 11.0966 6.68507 11.2685C6.51316 11.4404 6.41658 11.6736 6.41658 11.9167C6.41658 12.1598 6.51316 12.3929 6.68507 12.5648C6.85698 12.7368 7.09014 12.8333 7.33325 12.8333H12.8333C13.0764 12.8333 13.3095 12.7368 13.4814 12.5648C13.6533 12.3929 13.7499 12.1598 13.7499 11.9167C13.7499 11.6736 13.6533 11.4404 13.4814 11.2685C13.3095 11.0966 13.0764 11 12.8333 11ZM14.6666 7.33333H7.33325C7.09014 7.33333 6.85698 7.42991 6.68507 7.60182C6.51316 7.77373 6.41658 8.00689 6.41658 8.25C6.41658 8.49312 6.51316 8.72627 6.68507 8.89818C6.85698 9.07009 7.09014 9.16667 7.33325 9.16667H14.6666C14.9097 9.16667 15.1429 9.07009 15.3148 8.89818C15.4867 8.72627 15.5833 8.49312 15.5833 8.25C15.5833 8.00689 15.4867 7.77373 15.3148 7.60182C15.1429 7.42991 14.9097 7.33333 14.6666 7.33333Z" fill="url(#paint0_linear_1_1045)"/>
<defs>
<linearGradient id="paint0_linear_1_1045" x1="10.9999" y1="2.75" x2="10.9999" y2="20.1663" gradientUnits="userSpaceOnUse">
<stop stop-color="#2C1D88"/>
<stop offset="1" stop-color="#741278"/>
</linearGradient>
</defs>
</svg>
