<svg width="22" height="22" viewBox="0 0 22 22" fill="none" xmlns="http://www.w3.org/2000/svg">
<path d="M4.29634 5.69514L6.23325 17.3946C6.32185 17.9302 6.59771 18.4169 7.01169 18.7681C7.42567 19.1193 7.95088 19.3121 8.49375 19.3122H11.5628M17.7026 5.69514L15.7666 17.3946C15.678 17.9302 15.4021 18.4169 14.9882 18.7681C14.5742 19.1193 14.049 19.3121 13.5061 19.3122H10.4371M9.18675 10.1896V14.8178M12.8131 10.1896V14.8178M2.52075 5.69514H19.4791M13.5455 5.69514V4.06348C13.5455 3.6988 13.4006 3.34907 13.1428 3.0912C12.8849 2.83334 12.5352 2.68848 12.1705 2.68848L9.82934 2.68848C9.46466 2.68848 9.11493 2.83334 8.85706 3.0912C8.5992 3.34907 8.45434 3.6988 8.45434 4.06348V5.69514H13.5455Z" stroke="#323232" stroke-width="1.5" stroke-linecap="round" stroke-linejoin="round"/>
</svg>
