<svg width="22" height="22" viewBox="0 0 22 22" fill="none" xmlns="http://www.w3.org/2000/svg">
<path d="M19.2496 6.16967C19.2313 6.16967 19.2038 6.16967 19.1763 6.16967C14.3271 5.68384 9.48712 5.50051 4.69295 5.98634L2.82295 6.16967C2.43795 6.20634 2.09878 5.93134 2.06212 5.54634C2.02545 5.16134 2.30045 4.83134 2.67628 4.79467L4.54628 4.61134C9.42295 4.11634 14.3638 4.30884 19.3138 4.79467C19.6896 4.83134 19.9646 5.17051 19.9279 5.54634C19.9004 5.90384 19.5979 6.16967 19.2496 6.16967Z" fill="url(#paint0_linear_1_1027)"/>
<path d="M7.7917 5.24325C7.75503 5.24325 7.71836 5.24325 7.67253 5.23409C7.30586 5.16992 7.0492 4.81242 7.11336 4.44575L7.31503 3.24492C7.4617 2.36492 7.66336 1.14575 9.7992 1.14575H12.2009C14.3459 1.14575 14.5475 2.41075 14.685 3.25409L14.8867 4.44575C14.9509 4.82158 14.6942 5.17909 14.3275 5.23409C13.9517 5.29825 13.5942 5.04158 13.5392 4.67492L13.3375 3.48325C13.2092 2.68575 13.1817 2.52992 12.21 2.52992H9.80836C8.8367 2.52992 8.81836 2.65825 8.68086 3.47409L8.47003 4.66575C8.41503 5.00492 8.1217 5.24325 7.7917 5.24325Z" fill="url(#paint1_linear_1_1027)"/>
<path d="M13.9429 20.8539H8.05794C4.85877 20.8539 4.73044 19.0847 4.6296 17.6547L4.03377 8.42387C4.00627 8.04804 4.2996 7.71804 4.67544 7.69054C5.06044 7.6722 5.38127 7.95637 5.40877 8.3322L6.0046 17.563C6.10544 18.9564 6.1421 19.4789 8.05794 19.4789H13.9429C15.8679 19.4789 15.9046 18.9564 15.9963 17.563L16.5921 8.3322C16.6196 7.95637 16.9496 7.6722 17.3254 7.69054C17.7013 7.71804 17.9946 8.03887 17.9671 8.42387L17.3713 17.6547C17.2704 19.0847 17.1421 20.8539 13.9429 20.8539Z" fill="url(#paint2_linear_1_1027)"/>
<path d="M12.5217 15.8125H9.46924C9.0934 15.8125 8.78174 15.5008 8.78174 15.125C8.78174 14.7492 9.0934 14.4375 9.46924 14.4375H12.5217C12.8976 14.4375 13.2092 14.7492 13.2092 15.125C13.2092 15.5008 12.8976 15.8125 12.5217 15.8125Z" fill="url(#paint3_linear_1_1027)"/>
<path d="M13.2916 12.1458H8.70825C8.33242 12.1458 8.02075 11.8341 8.02075 11.4583C8.02075 11.0824 8.33242 10.7708 8.70825 10.7708H13.2916C13.6674 10.7708 13.9791 11.0824 13.9791 11.4583C13.9791 11.8341 13.6674 12.1458 13.2916 12.1458Z" fill="url(#paint4_linear_1_1027)"/>
<defs>
<linearGradient id="paint0_linear_1_1027" x1="10.995" y1="4.32202" x2="10.995" y2="6.17295" gradientUnits="userSpaceOnUse">
<stop stop-color="#2C1D88"/>
<stop offset="1" stop-color="#741278"/>
</linearGradient>
<linearGradient id="paint1_linear_1_1027" x1="11" y1="1.14575" x2="11" y2="5.24393" gradientUnits="userSpaceOnUse">
<stop stop-color="#2C1D88"/>
<stop offset="1" stop-color="#741278"/>
</linearGradient>
<linearGradient id="paint2_linear_1_1027" x1="11.0004" y1="7.6897" x2="11.0004" y2="20.8539" gradientUnits="userSpaceOnUse">
<stop stop-color="#2C1D88"/>
<stop offset="1" stop-color="#741278"/>
</linearGradient>
<linearGradient id="paint3_linear_1_1027" x1="10.9955" y1="14.4375" x2="10.9955" y2="15.8125" gradientUnits="userSpaceOnUse">
<stop stop-color="#2C1D88"/>
<stop offset="1" stop-color="#741278"/>
</linearGradient>
<linearGradient id="paint4_linear_1_1027" x1="10.9999" y1="10.7708" x2="10.9999" y2="12.1458" gradientUnits="userSpaceOnUse">
<stop stop-color="#2C1D88"/>
<stop offset="1" stop-color="#741278"/>
</linearGradient>
</defs>
</svg>
