<svg width="16" height="19" viewBox="0 0 16 19" fill="none" xmlns="http://www.w3.org/2000/svg">
<path d="M1.20833 9.66667V18.125C1.20833 18.2966 1.15033 18.44 1.03433 18.5552C0.918333 18.6704 0.774542 18.7284 0.602958 18.7292C0.431375 18.73 0.287986 18.672 0.172792 18.5552C0.0575974 18.4384 0 18.295 0 18.125V0.976339C0 0.700033 0.0934443 0.468033 0.280333 0.280338C0.467222 0.0926439 0.699222 -0.000800392 0.976333 5.16383e-06H7.87954C8.11315 5.16383e-06 8.32179 0.0712969 8.50546 0.21388C8.68912 0.356464 8.80351 0.545769 8.84862 0.781797L9.17488 2.41667H14.7332C15.0095 2.41667 15.2411 2.50931 15.428 2.69459C15.6149 2.87987 15.7083 3.10945 15.7083 3.38334V11.1167C15.7083 11.3906 15.6149 11.6201 15.428 11.8054C15.2411 11.9907 15.0091 12.0833 14.732 12.0833H10.2467C10.0131 12.0833 9.80442 12.012 9.62075 11.8695C9.43708 11.7269 9.32269 11.5376 9.27758 11.3015L8.95012 9.66667H1.20833ZM10.4521 10.875H14.5V3.62501H8.96704C8.73343 3.62501 8.52479 3.55371 8.34112 3.41113C8.15746 3.26855 8.04307 3.07924 7.99796 2.84321L7.67292 1.20834H1.20833V8.45834H9.15796C9.39157 8.45834 9.60021 8.52963 9.78387 8.67221C9.96754 8.8148 10.0819 9.0041 10.127 9.24013L10.4521 10.875Z" fill="white"/>
</svg>
