<svg width="26" height="25" viewBox="0 0 26 25" fill="none" xmlns="http://www.w3.org/2000/svg">
<path fill-rule="evenodd" clip-rule="evenodd" d="M5.6032 12.3335C5.6032 11.5325 5.74336 10.7643 5.99381 10.044L1.6124 6.86987C0.758466 8.51464 0.277466 10.3681 0.277466 12.3335C0.277466 14.2974 0.75806 16.1496 1.61058 17.7934L5.98954 14.6131C5.74153 13.896 5.6032 13.1308 5.6032 12.3335Z" fill="#FBBC05"/>
<path fill-rule="evenodd" clip-rule="evenodd" d="M13.296 5.04549C15.1304 5.04549 16.7873 5.66216 18.0891 6.67118L21.8762 3.08333C19.5685 1.17726 16.6098 0 13.296 0C8.15122 0 3.7296 2.79119 1.61243 6.86967L5.99363 10.0438C7.00316 7.13657 9.88083 5.04549 13.296 5.04549Z" fill="#EA4335"/>
<path fill-rule="evenodd" clip-rule="evenodd" d="M13.296 19.6213C9.88104 19.6213 7.00337 17.5302 5.99383 14.623L1.61243 17.7966C3.7296 21.8756 8.15123 24.6668 13.296 24.6668C16.4712 24.6668 19.5029 23.5971 21.7781 21.5929L17.6193 18.5427C16.4458 19.244 14.9681 19.6213 13.296 19.6213Z" fill="#34A853"/>
<path fill-rule="evenodd" clip-rule="evenodd" d="M25.7226 12.3334C25.7226 11.6046 25.6042 10.8197 25.4266 10.0911H13.296V14.8562H20.2786C19.9295 16.4809 18.9793 17.7298 17.6193 18.5427L21.7781 21.5929C24.1681 19.4885 25.7226 16.3535 25.7226 12.3334Z" fill="#4285F4"/>
</svg>
