<svg width="26" height="29" viewBox="0 0 26 29" fill="none" xmlns="http://www.w3.org/2000/svg">
<path d="M9.07917 26.5275V22.2069C9.07917 21.1039 9.95139 20.2098 11.0273 20.2098H14.9604C15.4771 20.2098 15.9726 20.4202 16.338 20.7947C16.7033 21.1692 16.9086 21.6772 16.9086 22.2069V26.5275C16.9053 26.9861 17.0807 27.427 17.3959 27.7524C17.711 28.0779 18.1399 28.2609 18.5872 28.2609H21.2705C22.5237 28.2642 23.7267 27.7562 24.614 26.849C25.5013 25.9417 26 24.7099 26 23.4252V11.1162C26 10.0785 25.5513 9.09412 24.7747 8.42834L15.6466 0.955032C14.0587 -0.355293 11.7836 -0.312986 10.2432 1.05551L1.32328 8.42834C0.510066 9.0745 0.0240189 10.0618 0 11.1162V23.4126C0 26.0902 2.11747 28.2609 4.7295 28.2609H7.35155C8.28063 28.2609 9.03568 27.4925 9.04241 26.5401L9.07917 26.5275Z" fill="#F4F1FF"/>
</svg>
