<svg width="22" height="22" viewBox="0 0 22 22" fill="none" xmlns="http://www.w3.org/2000/svg">
<path d="M11.0001 15.5834C11.4863 15.5834 11.9526 15.3903 12.2964 15.0464C12.6403 14.7026 12.8334 14.2363 12.8334 13.7501C12.8334 13.2639 12.6403 12.7975 12.2964 12.4537C11.9526 12.1099 11.4863 11.9167 11.0001 11.9167C10.5139 11.9167 10.0475 12.1099 9.70372 12.4537C9.3599 12.7975 9.16675 13.2639 9.16675 13.7501C9.16675 14.2363 9.3599 14.7026 9.70372 15.0464C10.0475 15.3903 10.5139 15.5834 11.0001 15.5834ZM16.5001 7.33342C16.9863 7.33342 17.4526 7.52657 17.7964 7.87039C18.1403 8.2142 18.3334 8.68052 18.3334 9.16675V18.3334C18.3334 18.8196 18.1403 19.286 17.7964 19.6298C17.4526 19.9736 16.9863 20.1667 16.5001 20.1667H5.50008C5.01385 20.1667 4.54754 19.9736 4.20372 19.6298C3.8599 19.286 3.66675 18.8196 3.66675 18.3334V9.16675C3.66675 8.68052 3.8599 8.2142 4.20372 7.87039C4.54754 7.52657 5.01385 7.33342 5.50008 7.33342H6.41675V5.50008C6.41675 4.28451 6.89963 3.11872 7.75918 2.25918C8.61872 1.39963 9.78451 0.916748 11.0001 0.916748C11.602 0.916748 12.198 1.0353 12.754 1.26563C13.3101 1.49597 13.8154 1.83357 14.241 2.25918C14.6666 2.68478 15.0042 3.19004 15.2345 3.74612C15.4649 4.30219 15.5834 4.89819 15.5834 5.50008V7.33342H16.5001ZM11.0001 2.75008C10.2707 2.75008 9.57126 3.03981 9.05554 3.55554C8.53981 4.07126 8.25008 4.77074 8.25008 5.50008V7.33342H13.7501V5.50008C13.7501 4.77074 13.4604 4.07126 12.9446 3.55554C12.4289 3.03981 11.7294 2.75008 11.0001 2.75008Z" fill="url(#paint0_linear_1_1050)"/>
<defs>
<linearGradient id="paint0_linear_1_1050" x1="11.0001" y1="0.916748" x2="11.0001" y2="20.1667" gradientUnits="userSpaceOnUse">
<stop stop-color="#2C1D88"/>
<stop offset="1" stop-color="#741278"/>
</linearGradient>
</defs>
</svg>
