<svg width="22" height="22" viewBox="0 0 22 22" fill="none" xmlns="http://www.w3.org/2000/svg">
<path d="M13.9696 20.4145H13.8504C9.7804 20.4145 7.81873 18.8104 7.47957 15.217C7.4429 14.8412 7.7179 14.502 8.1029 14.4653C8.46957 14.4287 8.8179 14.7128 8.85457 15.0887C9.1204 17.967 10.4771 19.0395 13.8596 19.0395H13.9787C17.7096 19.0395 19.0296 17.7195 19.0296 13.9887V8.01201C19.0296 4.28118 17.7096 2.96118 13.9787 2.96118H13.8596C10.4587 2.96118 9.10207 4.05201 8.85457 6.98535C8.80873 7.36118 8.4879 7.64535 8.1029 7.60868C7.7179 7.58118 7.4429 7.24201 7.4704 6.86618C7.78207 3.21785 9.7529 1.58618 13.8504 1.58618H13.9696C18.4704 1.58618 20.3954 3.51118 20.3954 8.01201V13.9887C20.3954 18.4895 18.4704 20.4145 13.9696 20.4145Z" fill="url(#paint0_linear_1_1020)"/>
<path d="M13.75 11.6875H3.31836C2.94253 11.6875 2.63086 11.3758 2.63086 11C2.63086 10.6242 2.94253 10.3125 3.31836 10.3125H13.75C14.1259 10.3125 14.4375 10.6242 14.4375 11C14.4375 11.3758 14.1259 11.6875 13.75 11.6875Z" fill="url(#paint1_linear_1_1020)"/>
<path d="M5.36298 14.7583C5.18881 14.7583 5.01464 14.6941 4.87714 14.5566L1.80631 11.4858C1.54048 11.2199 1.54048 10.7799 1.80631 10.5141L4.87714 7.44327C5.14298 7.17744 5.58298 7.17744 5.84881 7.44327C6.11464 7.7091 6.11464 8.14911 5.84881 8.41494L3.26381 10.9999L5.84881 13.5849C6.11464 13.8508 6.11464 14.2908 5.84881 14.5566C5.72048 14.6941 5.53714 14.7583 5.36298 14.7583Z" fill="url(#paint2_linear_1_1020)"/>
<defs>
<linearGradient id="paint0_linear_1_1020" x1="13.932" y1="1.58618" x2="13.932" y2="20.4145" gradientUnits="userSpaceOnUse">
<stop stop-color="#2C1D88"/>
<stop offset="1" stop-color="#741278"/>
</linearGradient>
<linearGradient id="paint1_linear_1_1020" x1="8.53419" y1="10.3125" x2="8.53419" y2="11.6875" gradientUnits="userSpaceOnUse">
<stop stop-color="#2C1D88"/>
<stop offset="1" stop-color="#741278"/>
</linearGradient>
<linearGradient id="paint2_linear_1_1020" x1="3.82756" y1="7.2439" x2="3.82756" y2="14.7583" gradientUnits="userSpaceOnUse">
<stop stop-color="#2C1D88"/>
<stop offset="1" stop-color="#741278"/>
</linearGradient>
</defs>
</svg>
