<svg width="23" height="23" viewBox="0 0 23 23" fill="none" xmlns="http://www.w3.org/2000/svg">
<path d="M11.4303 17.1865H17.9376C18.191 17.2007 18.4439 17.1498 18.672 17.0385C18.9001 16.9273 19.0959 16.7595 19.2408 16.5511C19.3857 16.3427 19.4748 16.1007 19.4996 15.8481C19.5243 15.5955 19.484 15.3408 19.3824 15.1082C19.0384 14.0685 17.6672 12.8215 17.6672 11.5946C17.6672 8.87127 17.6672 8.1546 16.3256 6.55309C15.891 6.03812 15.3528 5.62041 14.7461 5.32712L13.9979 4.964C13.8719 4.88874 13.7633 4.78768 13.6791 4.66746C13.595 4.54724 13.5372 4.41058 13.5096 4.26645C13.4348 3.78142 13.1783 3.34299 12.7922 3.04008C12.4061 2.73717 11.9192 2.59247 11.4303 2.63532C10.9502 2.60649 10.4767 2.75764 10.1021 3.05926C9.72748 3.36087 9.47877 3.79129 9.40452 4.26645C9.37089 4.41534 9.30493 4.55501 9.2113 4.67556C9.11766 4.79611 8.99866 4.89459 8.86271 4.964L8.11452 5.32712C7.50815 5.62052 6.97031 6.03823 6.53594 6.55309C5.19529 8.1546 5.19529 8.87127 5.19529 11.5946C5.19529 12.8215 3.88618 13.9434 3.54218 15.0451C3.33483 15.7111 3.22016 17.1865 4.9564 17.1865H11.4303Z" stroke="white" stroke-opacity="0.8" stroke-width="1.72" stroke-linecap="round" stroke-linejoin="round"/>
<path d="M14.5483 17.1865C14.5568 17.5983 14.4819 18.0075 14.3282 18.3897C14.1745 18.7718 13.9451 19.1189 13.6539 19.4101C13.3627 19.7013 13.0156 19.9307 12.6335 20.0844C12.2513 20.2381 11.8421 20.313 11.4303 20.3045C11.0185 20.3132 10.6092 20.2385 10.227 20.0849C9.84482 19.9313 9.49768 19.702 9.20646 19.4107C8.91525 19.1194 8.68599 18.7721 8.5325 18.3899C8.379 18.0077 8.30444 17.5983 8.3133 17.1865" stroke="white" stroke-opacity="0.8" stroke-width="1.72" stroke-linecap="round" stroke-linejoin="round"/>
</svg>
