<svg width="12" height="14" viewBox="0 0 12 14" fill="none" xmlns="http://www.w3.org/2000/svg">
<path d="M1.35414 13.4828C1.12919 13.4824 0.908223 13.4234 0.712974 13.3117C0.273319 13.0626 0 12.579 0 12.0539V1.42894C0 0.902457 0.273319 0.420302 0.712974 0.171164C0.912872 0.0562805 1.13996 -0.00279842 1.3705 0.000101867C1.60104 0.00300215 1.82657 0.0677753 2.02351 0.187651L11.1042 5.62325C11.2935 5.74192 11.4495 5.90671 11.5576 6.10216C11.6658 6.29762 11.7225 6.51733 11.7225 6.74071C11.7225 6.96409 11.6658 7.18381 11.5576 7.37926C11.4495 7.57471 11.2935 7.7395 11.1042 7.85817L2.02205 13.2952C1.8205 13.4171 1.58965 13.4819 1.35414 13.4828Z" fill="white"/>
</svg>
