<svg width="32" height="32" viewBox="0 0 32 32" fill="none" xmlns="http://www.w3.org/2000/svg">
<path d="M6.66671 26.6667H25.3334C25.7112 26.6667 26.028 26.7947 26.284 27.0507C26.54 27.3067 26.6676 27.6231 26.6667 28C26.6658 28.3769 26.5378 28.6938 26.2827 28.9507C26.0276 29.2076 25.7112 29.3351 25.3334 29.3333H6.66671C6.28893 29.3333 5.97249 29.2053 5.71738 28.9493C5.46227 28.6933 5.33427 28.3769 5.33338 28C5.33249 27.6231 5.46049 27.3067 5.71738 27.0507C5.97427 26.7947 6.29071 26.6667 6.66671 26.6667ZM13.3334 24C12.9556 24 12.6392 23.872 12.384 23.616C12.1289 23.36 12.0009 23.0436 12 22.6667V14.6667H9.40005C8.84449 14.6667 8.44449 14.4169 8.20005 13.9173C7.9556 13.4178 8.00005 12.9453 8.33338 12.5L14.9334 4.03333C15.0667 3.85556 15.228 3.72222 15.4174 3.63333C15.6067 3.54444 15.8009 3.5 16 3.5C16.1992 3.5 16.3938 3.54444 16.584 3.63333C16.7743 3.72222 16.9352 3.85556 17.0667 4.03333L23.6667 12.5C24 12.9444 24.0445 13.4169 23.8 13.9173C23.5556 14.4178 23.1556 14.6676 22.6 14.6667H20V22.6667C20 23.0444 19.872 23.3613 19.616 23.6173C19.36 23.8733 19.0436 24.0009 18.6667 24H13.3334Z" fill="white" fill-opacity="0.7"/>
</svg>
